<?xml version="1.0" standalone="no"?>
<!DOCTYPE svg PUBLIC "-//W3C//DTD SVG 20010904//EN"
 "http://www.w3.org/TR/2001/REC-SVG-20010904/DTD/svg10.dtd">
<svg version="1.0" xmlns="http://www.w3.org/2000/svg"
 width="1056.000000pt" height="1056.000000pt" viewBox="0 0 1056.000000 1056.000000"
 preserveAspectRatio="xMidYMid meet">
<metadata>
Created by potrace 1.11, written by Peter Selinger 2001-2013
</metadata>
<g transform="translate(0.000000,1056.000000) scale(0.100000,-0.100000)"
fill="#000000" stroke="none">
<path d="M0 5275 l0 -4836 1553 4 c853 3 1575 7 1602 9 48 5 151 17 205 24 14
1 45 5 70 8 120 14 146 18 154 24 5 3 26 6 45 7 20 1 45 5 56 8 20 6 71 17
110 22 11 2 21 4 23 5 1 2 7 4 12 5 6 1 11 3 13 4 1 2 16 4 32 6 17 2 41 7 55
11 14 4 30 8 35 9 9 3 144 41 245 69 25 8 60 20 79 28 32 13 35 17 36 61 0 26
-3 47 -8 47 -4 0 -5 6 0 13 10 17 11 58 1 80 -5 9 -5 17 -1 17 12 0 10 124 -2
132 -7 5 -6 8 1 8 6 0 9 17 7 42 -2 24 -4 48 -4 53 0 6 2 19 4 31 3 11 1 27
-4 35 -5 8 -9 9 -9 3 0 -6 -6 -11 -12 -11 -7 -1 -91 -28 -185 -61 -95 -33
-173 -58 -173 -57 0 2 -25 -5 -57 -16 -31 -10 -58 -17 -60 -15 -3 2 -20 -2
-39 -10 -19 -8 -37 -14 -41 -14 -29 -1 -84 -14 -89 -21 -3 -5 -9 -7 -13 -5 -4
3 -61 -5 -127 -18 -65 -14 -144 -27 -174 -31 -30 -3 -62 -8 -70 -10 -8 -2 -44
-7 -80 -10 -36 -2 -75 -7 -87 -9 -80 -16 -396 -21 -1438 -21 l-1180 0 -2 90
c-1 50 -2 101 -3 115 0 14 -1 57 -1 95 0 39 0 77 -1 85 0 8 0 26 1 40 0 14 1
36 1 50 0 14 2 60 3 103 1 42 -1 77 -4 77 -4 0 -4 15 0 33 4 17 4 47 0 65 -3
18 -2 32 3 32 5 0 7 4 3 9 -3 5 -5 31 -5 58 0 45 0 59 0 101 -1 17 -1 202 0
232 0 8 0 44 -1 80 0 36 0 72 1 80 1 50 -2 105 -6 112 -3 4 -2 8 3 8 9 0 8 83
-1 106 -3 8 -2 14 2 14 7 0 6 152 -2 183 -2 9 -1 17 2 17 8 0 6 86 -2 106 -3
8 -2 14 2 14 6 0 7 100 2 220 0 14 -1 57 -1 95 0 39 0 77 -1 85 0 8 0 26 1 40
0 14 1 36 1 50 0 14 2 60 3 103 1 42 -1 77 -4 77 -4 0 -4 15 0 33 4 17 4 47 0
65 -3 18 -2 32 3 32 5 0 7 4 3 9 -3 5 -5 31 -5 58 0 45 0 59 0 101 -1 17 -1
202 0 232 0 8 0 44 -1 80 0 36 0 72 1 80 1 50 -2 105 -6 112 -3 4 -2 8 3 8 9
0 8 83 -1 106 -3 8 -2 14 2 14 7 0 6 152 -2 182 -2 10 -1 18 2 18 8 0 6 86 -2
106 -3 8 -2 14 2 14 6 0 7 100 2 220 0 14 -1 57 -1 95 0 39 0 77 -1 85 0 8 0
26 1 40 0 14 1 36 1 50 0 14 2 60 3 103 1 42 -1 77 -4 77 -4 0 -4 15 0 33 4
17 4 47 0 65 -3 18 -2 32 3 32 5 0 7 4 3 9 -3 5 -5 31 -5 58 0 45 0 59 0 101
-1 17 -1 202 0 232 0 8 0 44 -1 80 0 36 0 72 1 80 1 50 -2 105 -6 112 -3 4 -2
8 3 8 9 0 8 83 -1 106 -3 8 -2 14 2 14 7 0 6 152 -2 183 -2 9 -1 17 2 17 8 0
6 86 -2 106 -3 8 -2 14 2 14 6 0 7 100 2 220 0 14 -1 57 -1 95 0 39 0 77 -1
85 0 8 0 26 1 40 0 14 1 36 1 50 0 14 2 60 3 103 1 42 -1 77 -4 77 -4 0 -4 15
0 33 4 17 4 47 0 65 -3 18 -2 32 3 32 5 0 7 4 3 9 -3 5 -5 31 -5 58 0 45 0 59
0 101 -1 17 -1 202 0 232 0 8 0 44 -1 80 0 36 0 72 1 80 1 50 -2 105 -6 112
-3 4 -2 8 3 8 9 0 8 83 -1 106 -3 8 -2 14 2 14 7 0 6 152 -2 183 -2 9 -1 17 2
17 8 0 6 86 -2 106 -3 8 -2 14 2 14 6 0 7 100 2 220 0 14 -1 57 -1 95 0 39 0
77 -1 85 0 8 0 26 1 40 0 14 1 36 1 50 0 14 2 60 3 103 1 42 -1 77 -4 77 -4 0
-4 15 0 33 4 17 4 47 0 65 -3 18 -2 32 3 32 5 0 7 4 3 9 -3 5 -5 31 -5 58 0
26 0 57 0 68 0 24 0 46 3 105 l2 45 983 0 c541 0 986 -3 988 -7 3 -4 12 -4 22
-1 9 4 30 6 47 6 81 -3 294 -15 320 -17 17 -2 68 -7 115 -11 132 -11 151 -13
222 -24 37 -6 71 -10 75 -9 4 0 19 -2 33 -5 14 -4 42 -9 64 -12 21 -3 41 -7
45 -10 4 -2 29 -6 57 -9 27 -3 69 -10 94 -17 25 -6 56 -13 70 -15 14 -3 33 -7
42 -10 9 -3 26 -7 37 -9 45 -10 58 -14 116 -29 65 -18 72 -20 95 -28 8 -3 76
-24 150 -48 74 -24 151 -50 170 -59 19 -8 41 -16 49 -17 8 -2 17 -7 20 -13 4
-5 11 -7 16 -3 12 8 14 92 2 92 -4 0 -5 5 -1 12 10 17 11 58 2 64 -5 3 -5 11
-1 17 12 18 10 181 -2 189 -7 5 -6 8 1 8 11 0 11 70 0 88 -3 6 -2 13 3 17 11
6 4 35 -7 33 -4 0 -9 1 -12 2 -3 1 -12 3 -20 5 -8 2 -34 10 -57 18 -22 9 -44
13 -47 10 -3 -4 -6 -2 -6 4 0 5 -6 10 -12 11 -7 0 -56 13 -108 27 -130 37
-159 44 -200 51 -19 3 -43 10 -52 15 -10 5 -18 8 -18 5 0 -2 -17 0 -38 5 -20
5 -48 11 -62 14 -14 2 -41 7 -60 11 -19 4 -46 8 -60 10 -14 1 -25 3 -25 4 0 2
-33 9 -80 16 -40 6 -62 9 -145 18 -25 3 -56 8 -70 11 -38 8 -139 18 -300 30
-41 3 -97 8 -125 11 -27 4 -672 8 -1432 11 l-1383 4 0 -4836z"/>
<path d="M4491 5275 l0 -4835 3034 0 3035 0 0 225 c0 124 -3 225 -7 225 -5 1
-1262 1 -2795 1 l-2788 1 0 2086 c0 1148 4 2092 8 2097 9 12 82 14 82 2 0 -4
5 -5 12 -1 19 12 238 11 238 -1 0 -7 3 -7 8 0 4 6 69 10 160 10 94 0 152 -4
152 -10 0 -7 3 -7 8 0 4 6 62 10 137 10 75 0 133 -4 137 -10 5 -6 8 -6 8 2 0
7 9 10 23 7 12 -3 29 -5 37 -5 86 6 198 5 213 -1 9 -5 17 -5 17 -1 0 12 214
10 222 -2 5 -7 8 -7 8 0 0 12 219 13 238 1 7 -4 12 -3 12 1 0 5 32 8 71 7 l71
-2 -4 232 -3 231 -927 3 -928 2 0 2053 0 2054 2698 0 2697 0 3 226 2 227
-2939 0 -2940 0 0 -4835z"/>
<path d="M5139 9428 c-1 -2 -2 -128 -3 -281 -1 -267 0 -279 18 -289 11 -6 25
-15 30 -20 6 -5 56 -41 111 -81 55 -39 111 -81 125 -93 14 -12 57 -48 95 -80
142 -118 297 -273 445 -444 30 -35 62 -71 70 -80 8 -9 20 -24 25 -32 6 -9 38
-52 73 -97 81 -106 215 -306 249 -370 14 -28 30 -51 34 -51 5 0 9 -7 9 -15 0
-9 10 -32 23 -53 50 -79 207 -420 207 -449 0 -7 5 -13 12 -13 6 0 9 -3 5 -6
-3 -3 6 -36 20 -72 14 -37 26 -71 28 -77 1 -5 5 -18 8 -27 4 -10 10 -26 14
-35 3 -10 7 -22 8 -28 2 -5 14 -48 28 -95 47 -154 93 -339 103 -410 2 -14 8
-43 13 -65 14 -60 27 -133 36 -213 4 -29 9 -63 11 -75 3 -12 7 -44 9 -72 3
-27 7 -66 9 -85 28 -200 23 -816 -9 -1040 -11 -80 -17 -127 -20 -165 -2 -22
-4 -40 -5 -40 -2 0 -7 -28 -14 -73 -3 -22 -7 -51 -10 -64 -3 -12 -8 -36 -10
-53 -8 -46 -13 -73 -51 -235 -2 -8 -8 -30 -14 -48 -5 -18 -10 -33 -9 -35 2
-12 -109 -361 -121 -382 -3 -5 -6 -12 -7 -15 -2 -9 -16 -44 -35 -87 -10 -24
-19 -50 -19 -58 0 -8 -4 -15 -10 -15 -5 0 -10 -4 -10 -9 0 -5 -10 -31 -22 -58
-12 -26 -22 -50 -23 -53 -1 -6 -103 -201 -143 -275 -15 -27 -30 -51 -34 -53
-5 -2 -8 -7 -8 -12 0 -8 -59 -109 -70 -120 -3 -3 -11 -17 -19 -32 -8 -16 -18
-28 -23 -28 -4 0 -8 -7 -8 -15 0 -8 -5 -15 -12 -15 -6 0 -9 -3 -5 -6 3 -4 1
-12 -6 -19 -7 -7 -19 -23 -27 -35 -46 -68 -184 -249 -198 -260 -4 -3 -23 -25
-43 -50 -98 -121 -261 -284 -465 -465 -58 -51 -260 -204 -319 -242 -28 -17
-45 -36 -46 -48 -5 -122 -2 -545 5 -545 12 0 174 99 181 111 4 5 11 7 16 4 5
-4 9 -2 9 3 0 5 12 15 28 23 15 8 32 18 37 22 6 4 48 35 95 68 91 64 132 95
161 120 10 8 30 24 44 35 15 10 35 26 44 34 10 8 37 31 60 50 162 135 521 493
521 520 0 6 4 10 8 10 4 0 35 34 67 76 33 42 66 83 73 90 6 7 12 17 12 22 0 6
4 12 8 14 5 2 26 28 48 58 21 30 41 57 44 60 13 13 50 70 50 79 0 5 3 11 8 13
11 5 72 103 72 116 0 7 4 12 9 12 5 0 16 12 24 28 7 15 24 45 37 67 230 394
416 858 516 1287 2 10 6 28 9 40 10 41 37 173 40 195 2 12 6 35 10 52 3 16 8
45 11 63 7 51 14 109 20 153 2 21 7 51 9 65 3 14 8 57 11 95 3 39 8 88 10 110
26 286 21 772 -11 1023 -3 26 -8 70 -11 97 -5 50 -11 90 -14 90 -1 0 -3 16 -5
35 -2 19 -6 44 -8 55 -3 11 -8 40 -12 65 -8 51 -8 47 -30 155 -9 44 -23 107
-32 140 -9 33 -17 69 -19 80 -2 11 -13 52 -24 90 -11 39 -23 83 -26 100 -3 16
-12 42 -20 57 -8 16 -12 28 -9 28 3 0 -1 16 -9 35 -8 19 -12 35 -9 35 3 0 0 7
-7 15 -7 8 -9 15 -4 15 4 0 3 5 -4 12 -7 7 -12 19 -12 28 0 8 -16 58 -36 110
-19 52 -37 102 -39 110 -2 8 -11 33 -21 55 -10 22 -18 42 -19 45 -1 3 -9 22
-18 44 -9 21 -17 40 -17 41 0 2 -21 47 -47 101 -26 55 -46 102 -45 107 1 4 -2
7 -8 7 -5 0 -10 9 -10 19 0 11 -3 21 -7 23 -5 2 -28 41 -52 88 -75 142 -297
499 -331 530 -3 3 -18 23 -35 45 -33 45 -32 44 -77 102 -18 23 -40 50 -48 61
-39 49 -89 108 -126 148 -23 24 -39 44 -37 44 3 0 -57 62 -134 138 -140 139
-298 276 -453 392 -47 35 -86 68 -88 72 -2 4 -8 8 -13 8 -5 0 -56 31 -112 68
-153 103 -253 161 -258 150z"/>
<path d="M7595 5487 c0 -34 5 -68 9 -75 4 -7 4 -12 -1 -12 -4 0 -8 -20 -8 -45
0 -25 2 -45 5 -45 8 0 5 -114 -3 -127 -4 -6 -3 -14 3 -18 7 -4 7 -12 0 -26 -7
-13 -7 -25 -1 -38 9 -16 23 -18 121 -17 67 1 110 -3 110 -9 0 -6 3 -5 8 1 4 6
16 9 27 7 11 -2 27 -4 35 -3 105 5 198 4 213 -2 9 -5 17 -5 17 -1 0 12 214 10
222 -2 5 -7 8 -7 8 0 0 12 219 13 238 1 7 -4 12 -4 12 1 0 12 174 10 182 -2 5
-6 8 -6 8 2 0 7 9 10 23 7 12 -3 27 -5 32 -5 76 7 295 4 295 -4 0 -7 3 -7 8 0
4 6 69 10 157 10 88 0 153 -4 157 -10 5 -7 8 -7 8 0 0 6 65 10 177 9 l178 -1
0 233 0 234 -1121 0 -1121 0 2 -63z"/>
</g>
</svg>
