<?xml version="1.0" encoding="UTF-8" standalone="no"?>
<svg xmlns="http://www.w3.org/2000/svg" xmlns:xlink="http://www.w3.org/1999/xlink" contentScriptType="application/ecmascript" contentStyleType="text/css" height="150px" preserveAspectRatio="none" style="width:241px;height:150px;" version="1.1" viewBox="0 0 241 150" width="241px" zoomAndPan="magnify"><defs><filter height="300%" id="fgwuyr2lkt9bv" width="300%" x="-1" y="-1"><feGaussianBlur result="blurOut" stdDeviation="2.0"/><feColorMatrix in="blurOut" result="blurOut2" type="matrix" values="0 0 0 0 0 0 0 0 0 0 0 0 0 0 0 0 0 0 .4 0"/><feOffset dx="4.0" dy="4.0" in="blurOut2" result="blurOut3"/><feBlend in="SourceGraphic" in2="blurOut3" mode="normal"/></filter></defs><g><!--MD5=[72136138052d025cffdce3c22fbd185f]
class Product--><rect codeLine="1" fill="#FEFECE" filter="url(#fgwuyr2lkt9bv)" height="124.8281" id="Product" style="stroke: #A80036; stroke-width: 1.5;" width="215" x="7" y="7"/><ellipse cx="87.75" cy="23" fill="#ADD1B2" rx="11" ry="11" style="stroke: #A80036; stroke-width: 1.0;"/><path d="M90.0938,18.6719 C89.1563,18.2344 88.5625,18.0938 87.6875,18.0938 C85.0625,18.0938 83.0625,20.1719 83.0625,22.8906 L83.0625,24.0156 C83.0625,26.5938 85.1719,28.4844 88.0625,28.4844 C89.2813,28.4844 90.4375,28.1875 91.1875,27.6406 C91.7656,27.2344 92.0938,26.7813 92.0938,26.3906 C92.0938,25.9375 91.7031,25.5469 91.2344,25.5469 C91.0156,25.5469 90.8125,25.625 90.625,25.8125 C90.1719,26.2969 90.1719,26.2969 89.9844,26.3906 C89.5625,26.6563 88.875,26.7813 88.1094,26.7813 C86.0625,26.7813 84.7656,25.6875 84.7656,23.9844 L84.7656,22.8906 C84.7656,21.1094 86.0156,19.7969 87.75,19.7969 C88.3281,19.7969 88.9375,19.9531 89.4063,20.2031 C89.8906,20.4844 90.0625,20.7031 90.1563,21.1094 C90.2188,21.5156 90.25,21.6406 90.3906,21.7656 C90.5313,21.9063 90.7656,22.0156 90.9844,22.0156 C91.25,22.0156 91.5156,21.875 91.6875,21.6563 C91.7969,21.5 91.8281,21.3125 91.8281,20.8906 L91.8281,19.4688 C91.8281,19.0313 91.8125,18.9063 91.7188,18.75 C91.5625,18.4844 91.2813,18.3438 90.9844,18.3438 C90.6875,18.3438 90.4844,18.4375 90.2656,18.75 L90.0938,18.6719 Z "/><text fill="#000000" font-family="sans-serif" font-size="12" lengthAdjust="spacingAndGlyphs" textLength="45" x="108.25" y="27.1543">Product</text><line style="stroke: #A80036; stroke-width: 1.5;" x1="8" x2="221" y1="39" y2="39"/><ellipse cx="18" cy="50" fill="none" rx="3" ry="3" style="stroke: #038048; stroke-width: 1.0;"/><text fill="#000000" font-family="sans-serif" font-size="11" lengthAdjust="spacingAndGlyphs" textLength="65" x="27" y="53.2104">URL : String</text><ellipse cx="18" cy="62.8047" fill="none" rx="3" ry="3" style="stroke: #038048; stroke-width: 1.0;"/><text fill="#000000" font-family="sans-serif" font-size="11" lengthAdjust="spacingAndGlyphs" textLength="78" x="27" y="66.0151">Name : String</text><ellipse cx="18" cy="75.6094" fill="none" rx="3" ry="3" style="stroke: #038048; stroke-width: 1.0;"/><text fill="#000000" font-family="sans-serif" font-size="11" lengthAdjust="spacingAndGlyphs" textLength="106" x="27" y="78.8198">Availability : String</text><ellipse cx="18" cy="88.4141" fill="none" rx="3" ry="3" style="stroke: #038048; stroke-width: 1.0;"/><text fill="#000000" font-family="sans-serif" font-size="11" lengthAdjust="spacingAndGlyphs" textLength="189" x="27" y="91.6245">statusChanged : boolean = False</text><line style="stroke: #A80036; stroke-width: 1.5;" x1="8" x2="221" y1="98.2188" y2="98.2188"/><ellipse cx="18" cy="109.2188" fill="#84BE84" rx="3" ry="3" style="stroke: #038048; stroke-width: 1.0;"/><text fill="#000000" font-family="sans-serif" font-size="11" lengthAdjust="spacingAndGlyphs" textLength="105" x="27" y="112.4292">update() : boolean</text><rect fill="#F24D5C" height="6" style="stroke: #C82930; stroke-width: 1.0;" width="6" x="15" y="119.0234"/><text fill="#000000" font-family="sans-serif" font-size="11" lengthAdjust="spacingAndGlyphs" textLength="89" x="27" y="125.2339">getAvailability()</text><!--MD5=[4dcf1ee7c6f10ea48479881e5d9130fa]
@startuml
class Product{
    +URL : String
    +Name : String
    +Availability : String
    +statusChanged : boolean = False
    +update() : boolean
    -getAvailability()
}
@enduml

PlantUML version 1.2020.16beta7(Unknown compile time)
(GPL source distribution)
Java Runtime: Java(TM) SE Runtime Environment
JVM: Java HotSpot(TM) 64-Bit Server VM
Default Encoding: UTF-8
Language: en
Country: US
--></g></svg>